<svg version="1.1" id="Layer_1" xmlns:x="ns_extend;" xmlns:i="ns_ai;" xmlns:graph="ns_graphs;" xmlns="http://www.w3.org/2000/svg" xmlns:xlink="http://www.w3.org/1999/xlink" x="0px" y="0px" viewBox="0 0 407.8 77" style="enable-background:new 0 0 407.8 77;" xml:space="preserve">
 <style type="text/css">
  .st0{filter:url(#Adobe_OpacityMaskFilter);}
	.st1{fill-rule:evenodd;clip-rule:evenodd;fill:#FFFFFF;}
	.st2{mask:url(#wg153kbr7b_1_);fill-rule:evenodd;clip-rule:evenodd;fill:#F0FF5F;}
 </style>
 <metadata>
  <sfw xmlns="ns_sfw;">
   <slices>
   </slices>
   <sliceSourceBounds bottomLeftOrigin="true" height="77" width="407.8" x="-207.8" y="0.2">
   </sliceSourceBounds>
  </sfw>
 </metadata>
 <g>
  <g>
   <g transform="translate(-30 -29) translate(30 29)">
    <defs>
     <filter id="Adobe_OpacityMaskFilter" filterUnits="userSpaceOnUse" x="0" y="0" width="407.8" height="77">
      <feColorMatrix type="matrix" values="1 0 0 0 0  0 1 0 0 0  0 0 1 0 0  0 0 0 1 0">
      </feColorMatrix>
     </filter>
    </defs>
    <mask maskUnits="userSpaceOnUse" x="0" y="0" width="407.8" height="77" id="wg153kbr7b_1_">
     <g class="st0">
      <path id="z45y3av3ua_1_" class="st1" d="M0,0h407.8v77H0V0z">
      </path>
     </g>
    </mask>
    <path class="st2" d="M219.2,26c-6.5,0-11.7,2.5-15,7.3l-0.5,0.7l-0.5-0.7c-3.2-4.8-8.2-7.3-14.4-7.3c-6,0-10.8,2.3-14,6.7
				l-0.4,0.5l-2.7-6l-15,0l4,9v39.5h14.6v-28c0-6,3.1-9.6,8.4-9.6c5.2,0,8.3,3.6,8.3,9.6v28h14.6v-28c0-6,3.1-9.6,8.4-9.6
				c5.2,0,8.3,3.6,8.3,9.6v28h14.6V45.7C237.9,33.8,230.6,26,219.2,26z M280.7,46.5l-0.1-0.7c-1.1-5.5-5.2-8.8-10.9-8.8
				c-5.8,0-9.9,3.3-11,8.8l-0.1,0.7L280.7,46.5L280.7,46.5z M293.3,44.8V57h-34.5l0.2,0.7c1.1,3.6,3.7,6.2,7.6,7.4
				c3.2,0.9,7.5,0.9,10.7-0.1c2.9-0.9,4.6-1.9,4.6-1.9l7.6,8.6c-4.8,3.3-11.3,5.2-17.4,5.2c-16.2,0-27.1-10.2-27.1-25.5
				c0-14.8,10.3-25.5,24.6-25.5C282,26,290.6,32.9,293.3,44.8L293.3,44.8z M138.1,51.5c0-7-4.9-12.1-11.7-12.1
				c-6.8,0-11.7,5.1-11.7,12.1s4.9,12.1,11.7,12.1C133.1,63.6,138.1,58.5,138.1,51.5L138.1,51.5z M152.6,51.5
				c0,7.2-2.8,13.8-7.9,18.5c-4.9,4.5-11.4,7-18.4,7c-6.9,0-13.5-2.5-18.4-7c-5.1-4.7-7.9-11.3-7.9-18.5c0-7.2,2.8-13.8,7.9-18.5
				c4.9-4.5,11.4-7,18.4-7c6.9,0,13.5,2.5,18.4,7C149.8,37.8,152.6,44.3,152.6,51.5L152.6,51.5z M82.8,15.3H68.2v12h-6.9v12.1h6.9
				v20.4c0,11.2,5.2,16,17.5,16h7V63.7l-4.2-0.1c-3.9,0-5.8-2.1-5.8-6.6V39.4h10.1l5.3-12.1H82.8V15.3L82.8,15.3z M38,51
				c-0.3-6.7-5.2-11.5-11.7-11.5c-6.8,0-11.7,5.1-11.7,12.1s4.9,12.1,11.7,12.1c6.5,0,11.4-4.8,11.7-11.5V51z M52.5,65.2l2.8,10.6
				H42.3L40.4,69l-0.7,0.7C35.4,74.4,29.6,77,23.3,77c-6.1,0-11.9-2.5-16.2-7c-4.5-4.7-7-11.3-7-18.5S2.5,37.7,7,33
				c4.3-4.5,10.1-7,16.2-7c6,0,11.6,2.3,15.8,6.5l1,1v-6.3h12.6V65.2z M407.8,76.3h-16.3l-9.3-15.7c-6.2,4.3-12.7,6.5-19.4,6.5
				c-0.3,0-0.5,0-0.8,0c-7.3-0.2-13.8-2.9-19.3-6.7l-9.5,15.9h-16.3L362.3,0l17.5,29.4c0,0-2.2,1.9-4.8,3.7
				c-1.9,1.3-6.3,4.1-10.1-1.3l-2.6-4.3l-12.4,20.9c3.8,2.7,8.1,4.6,12.4,4.7c7.5,0.2,15.1-4.8,22.7-14.7h17
				c-3,4.9-6.1,9.1-9.3,12.8L407.8,76.3L407.8,76.3z">
    </path>
   </g>
  </g>
 </g>
</svg>