<svg version="1.1" id="Layer_1" xmlns:x="ns_extend;" xmlns:i="ns_ai;" xmlns:graph="ns_graphs;" xmlns="http://www.w3.org/2000/svg" xmlns:xlink="http://www.w3.org/1999/xlink" x="0px" y="0px" viewBox="0 0 91 76.3" style="enable-background:new 0 0 91 76.3;" xml:space="preserve">
 <style type="text/css">
  .st0{filter:url(#Adobe_OpacityMaskFilter);}
	.st1{fill-rule:evenodd;clip-rule:evenodd;fill:#FFFFFF;}
	.st2{mask:url(#wg153kbr7b_1_);fill-rule:evenodd;clip-rule:evenodd;fill:#F0FF5F;}
 </style>
 <metadata>
  <sfw xmlns="ns_sfw;">
   <slices>
   </slices>
   <sliceSourceBounds bottomLeftOrigin="true" height="76.3" width="91" x="109" y="0.6">
   </sliceSourceBounds>
  </sfw>
 </metadata>
 <g>
  <g>
   <g transform="translate(-30 -29) translate(30 29)">
    <defs>
     <filter id="Adobe_OpacityMaskFilter" filterUnits="userSpaceOnUse" x="0" y="0" width="91" height="76.3">
      <feColorMatrix type="matrix" values="1 0 0 0 0  0 1 0 0 0  0 0 1 0 0  0 0 0 1 0">
      </feColorMatrix>
     </filter>
    </defs>
    <mask maskUnits="userSpaceOnUse" x="0" y="0" width="91" height="76.3" id="wg153kbr7b_1_">
     <g class="st0">
      <path id="z45y3av3ua_1_" class="st1" d="M-316.7,0H91v77h-407.8V0z">
      </path>
     </g>
    </mask>
    <path class="st2" d="M91,76.3H74.7l-9.3-15.7c-6.2,4.3-12.7,6.5-19.4,6.5c-0.3,0-0.5,0-0.8,0c-7.3-0.2-13.8-2.9-19.3-6.7
				l-9.5,15.9H0L45.5,0L63,29.4c0,0-2.2,1.9-4.8,3.7c-1.9,1.3-6.3,4.1-10.1-1.3l-2.6-4.3L33.1,48.3c3.8,2.7,8.1,4.6,12.4,4.7
				c7.5,0.2,15.1-4.8,22.7-14.7h17c-3,4.9-6.1,9.1-9.3,12.8L91,76.3L91,76.3z">
    </path>
   </g>
  </g>
 </g>
</svg>